<svg width="1440" height="206" viewBox="0 0 1440 206" fill="none" xmlns="http://www.w3.org/2000/svg">
<path d="M1300.38 -8.67093C1227.83 11.8075 1145.25 24.9445 1077.26 -4.4207C1044.61 -23.1979 1010.8 -40.4812 975.97 -56.1962C945.786 -62.3393 914.458 -63.3162 883.823 -59.0699C853.187 -54.8235 823.862 -45.4393 797.567 -31.4676C744.909 -3.048 684.994 14.3059 622.814 19.1488C588.557 18.3414 555.424 8.62888 527.909 -8.67093C505.901 -26.6648 481.913 -42.8376 456.274 -56.969C393.764 -80.9248 324.867 -45.3775 269.658 -12.9212C214.449 19.5351 141.445 51.2187 83.4981 23.399C45.6274 4.85253 28.289 -33.0132 0 -60.8328L0 148.201C81.2167 121.154 171.559 106.858 245.475 142.405C274.221 156.315 298.403 176.794 327.605 189.931C354.026 201.675 383.703 207.157 413.499 205.797C443.296 204.436 472.105 196.285 496.882 182.203C542.51 155.543 572.624 108.79 625.095 92.9482C646.872 87.8342 669.638 86.4644 692.05 88.9198C714.462 91.3751 736.066 97.6058 755.589 107.244C795.741 124.245 832.243 145.883 874.221 162.111C932.273 182.246 996.776 184.704 1056.73 169.066C1107.29 149.761 1159.08 132.862 1211.86 118.45C1289.89 106.085 1367.45 133.905 1440 159.406V-47.6958C1392.72 -36.6695 1346.12 -23.6449 1300.38 -8.67093Z" fill="#EDE7DD"/>
</svg>
