<svg width="1440" height="206" viewBox="0 0 1440 206" fill="none" xmlns="http://www.w3.org/2000/svg">
<path d="M1300.38 214.671C1227.83 194.193 1145.25 181.056 1077.26 210.421C1044.61 229.198 1010.8 246.481 975.97 262.196C945.786 268.34 914.458 269.316 883.823 265.07C853.187 260.824 823.862 251.439 797.567 237.468C744.909 209.048 684.994 191.694 622.814 186.851C588.557 187.659 555.424 197.371 527.909 214.671C505.901 232.665 481.913 248.838 456.274 262.969C393.764 286.925 324.867 251.378 269.658 218.921C214.449 186.465 141.445 154.782 83.4981 182.601C45.6274 201.148 28.289 239.013 0 266.833V57.799C81.2167 84.8459 171.559 99.1422 245.475 63.5948C274.221 49.685 298.403 29.2066 327.605 16.0695C354.026 4.3251 383.703 -1.15668 413.499 0.203583C443.296 1.56381 472.105 9.71555 496.882 23.7972C542.51 50.4577 572.624 97.2103 625.095 113.052C646.872 118.166 669.638 119.536 692.05 117.08C714.462 114.625 736.066 108.394 755.589 98.7558C795.741 81.7549 832.243 60.1174 874.221 43.8892C932.273 23.7538 996.776 21.2958 1056.73 36.9343C1107.29 56.2393 1159.08 73.1378 1211.86 87.5507C1289.89 99.915 1367.45 72.0953 1440 46.5939V253.696C1392.72 242.67 1346.12 229.645 1300.38 214.671Z" fill="#709D5C"/>
</svg>
