<svg width="1440" height="206" viewBox="0 0 1440 206" fill="none" xmlns="http://www.w3.org/2000/svg">
<path d="M1300.38 -8.67117C1227.83 11.8072 1145.25 24.9443 1077.26 -4.42095C1044.61 -23.1982 1010.8 -40.4814 975.97 -56.1965C945.786 -62.3395 914.458 -63.3165 883.823 -59.0701C853.187 -54.8237 823.862 -45.4395 797.567 -31.4679C744.909 -3.04825 684.994 14.3057 622.814 19.1485C588.557 18.3412 555.424 8.62864 527.909 -8.67117C505.901 -26.6651 481.913 -42.8379 456.274 -56.9692C393.764 -80.9251 324.867 -45.3777 269.658 -12.9214C214.449 19.5349 141.445 51.2184 83.4981 23.3988C45.6274 4.85229 28.289 -33.0134 0 -60.8331L0 148.201C81.2167 121.154 171.559 106.858 245.475 142.405C274.221 156.315 298.403 176.793 327.605 189.93C354.026 201.675 383.703 207.157 413.499 205.796C443.296 204.436 472.105 196.284 496.882 182.203C542.51 155.542 572.624 108.79 625.095 92.948C646.872 87.8339 669.638 86.4642 692.05 88.9195C714.462 91.3749 736.066 97.6055 755.589 107.244C795.741 124.245 832.243 145.883 874.221 162.111C932.273 182.246 996.776 184.704 1056.73 169.066C1107.29 149.761 1159.08 132.862 1211.86 118.449C1289.89 106.085 1367.45 133.905 1440 159.406V-47.696C1392.72 -36.6698 1346.12 -23.6452 1300.38 -8.67117Z" fill="#709D5C"/>
</svg>
