<?xml version="1.0" standalone="no"?>
<!DOCTYPE svg PUBLIC "-//W3C//DTD SVG 20010904//EN"
 "http://www.w3.org/TR/2001/REC-SVG-20010904/DTD/svg10.dtd">
<svg version="1.0" xmlns="http://www.w3.org/2000/svg"
 width="637.000000pt" height="637.000000pt" viewBox="0 0 637.000000 637.000000"
 preserveAspectRatio="xMidYMid meet">
<metadata>
Created by potrace 1.14, written by Peter Selinger 2001-2017
</metadata>
<g transform="translate(0.000000,637.000000) scale(0.100000,-0.100000)"
fill="#000000" stroke="none">
<path d="M4773 5369 c-24 -12 -55 -35 -70 -53 -66 -78 -139 -303 -179 -555
l-17 -106 -531 -1 c-292 -1 -677 -7 -856 -13 -179 -6 -460 -16 -625 -21 -165
-6 -378 -15 -473 -21 -95 -6 -174 -10 -176 -8 -2 2 -16 72 -30 155 -38 224
-103 408 -174 489 -32 38 -87 73 -130 85 -206 55 -454 -318 -652 -980 -101
-336 -148 -747 -137 -1185 13 -477 90 -844 242 -1150 107 -214 239 -369 450
-525 252 -187 508 -309 821 -390 160 -42 564 -107 744 -121 581 -43 1341 110
1762 357 317 186 510 416 678 808 152 354 215 659 227 1096 16 578 -100 1216
-289 1594 -83 166 -266 429 -342 490 -90 75 -168 92 -243 55z m191 -77 c109
-82 300 -377 391 -603 144 -358 216 -757 231 -1294 7 -237 1 -329 -42 -625
-20 -140 -35 -204 -75 -324 -90 -266 -212 -517 -331 -678 -137 -186 -288 -307
-531 -427 -297 -147 -654 -243 -1065 -285 -175 -18 -507 -21 -650 -5 -142 15
-449 66 -582 95 -416 93 -829 320 -1089 600 -170 181 -317 508 -375 829 -51
281 -61 401 -60 690 3 472 41 766 144 1111 109 360 252 666 376 804 114 126
235 121 324 -12 64 -96 137 -321 166 -511 l17 -110 76 7 c99 9 672 41 1016 58
341 16 1497 17 1570 1 28 -7 53 -9 57 -5 3 4 16 61 28 127 27 153 75 341 110
426 73 179 172 223 294 131z"/>
<path d="M4159 3996 c-73 -15 -128 -52 -178 -119 -143 -188 -146 -425 -8 -583
63 -72 210 -134 319 -134 180 0 357 108 435 268 37 74 38 79 38 187 0 101 -2
114 -28 163 -16 30 -47 73 -71 96 -108 109 -327 161 -507 122z m303 -56 c114
-35 198 -105 242 -199 16 -35 21 -66 21 -132 0 -78 -3 -91 -38 -161 -79 -161
-227 -245 -416 -236 -346 16 -477 392 -232 661 53 57 93 77 186 90 51 8 177
-4 237 -23z"/>
<path d="M4200 3785 c-50 -23 -68 -43 -103 -110 -39 -78 -41 -135 -5 -197 89
-151 355 -173 446 -36 36 56 43 148 13 205 -55 109 -247 185 -351 138z m83
-32 c-7 -2 -21 -2 -30 0 -10 3 -4 5 12 5 17 0 24 -2 18 -5z m245 -138 c-3 -3
-9 2 -12 12 -6 14 -5 15 5 6 7 -7 10 -15 7 -18z m-256 -32 c-2 -24 -8 -40 -13
-37 -13 8 -11 58 3 72 15 15 16 14 10 -35z m-169 -33 c4 -33 3 -49 -2 -40 -9
15 -14 50 -12 84 2 33 8 14 14 -44z m403 -24 c-10 -50 -69 -106 -111 -106 -16
0 -11 8 26 43 28 25 51 58 59 82 7 22 15 45 19 50 9 15 14 -33 7 -69z m-129
-143 c-20 -2 -52 -2 -70 0 -17 2 0 4 38 4 39 0 53 -2 32 -4z"/>
<path d="M2247 3960 c-84 -13 -141 -42 -196 -100 -92 -96 -141 -220 -141 -357
0 -224 145 -381 385 -415 208 -30 436 95 528 289 29 63 32 76 32 173 0 99 -2
109 -33 172 -53 108 -157 184 -304 222 -76 19 -200 27 -271 16z m251 -55 c237
-56 366 -248 304 -451 -59 -194 -213 -310 -424 -322 -233 -12 -411 129 -426
338 -14 200 111 400 275 439 60 14 202 12 271 -4z"/>
<path d="M2268 3740 c-20 -11 -46 -33 -57 -49 -34 -48 -71 -134 -71 -166 1
-78 78 -168 177 -205 63 -24 177 -27 226 -7 113 48 169 185 117 286 -27 53
-102 116 -166 141 -72 27 -175 27 -226 0z m107 -20 c-3 -5 -21 -10 -38 -9 -27
0 -29 2 -12 9 28 12 57 12 50 0z m261 -147 c8 -18 13 -47 13 -65 -1 -34 -3
-29 -14 34 -3 21 -18 52 -33 70 -23 29 -24 31 -3 13 13 -11 30 -34 37 -52z
m-278 -60 l-4 -28 -13 26 c-11 22 -11 31 0 50 l14 24 3 -22 c2 -13 2 -35 0
-50z m-164 -64 c4 -8 0 -5 -8 5 -20 24 -31 80 -20 103 5 13 9 1 14 -38 4 -31
10 -62 14 -70z m263 89 c-3 -8 -6 -5 -6 6 -1 11 2 17 5 13 3 -3 4 -12 1 -19z
m153 -58 c-17 -59 -72 -110 -120 -110 -22 0 -20 4 27 45 39 34 56 58 69 98 17
50 18 51 25 24 4 -15 4 -41 -1 -57z m-160 -150 c12 -8 10 -9 -10 -9 -14 1 -38
5 -55 9 -29 7 -29 8 10 9 22 0 47 -4 55 -9z m57 4 c-3 -3 -12 -4 -19 -1 -8 3
-5 6 6 6 11 1 17 -2 13 -5z"/>
<path d="M3526 3891 c-24 -26 -52 -122 -66 -222 -6 -46 -13 -85 -14 -87 -2 -1
-6 24 -9 55 -9 89 -45 192 -77 225 -35 34 -51 35 -87 4 -73 -63 -23 -310 128
-633 l51 -108 1 -315 c1 -406 -23 -617 -88 -759 -91 -199 -309 -227 -423 -56
-49 74 -60 85 -77 79 -24 -9 -18 -54 15 -111 35 -60 79 -97 150 -124 137 -52
300 14 369 149 29 57 68 198 77 274 4 34 9 67 12 72 3 5 15 -28 28 -73 66
-225 186 -358 335 -369 91 -7 196 50 244 133 29 48 32 73 10 81 -10 4 -38 -17
-83 -63 -74 -77 -124 -99 -193 -88 -71 12 -160 96 -211 200 -69 138 -94 280
-103 570 -3 116 -10 258 -15 317 l-9 107 38 118 c74 225 119 499 97 586 -13
55 -67 75 -100 38z"/>
</g>
</svg>
