<?xml version="1.0" standalone="no"?>
<!DOCTYPE svg PUBLIC "-//W3C//DTD SVG 20010904//EN"
 "http://www.w3.org/TR/2001/REC-SVG-20010904/DTD/svg10.dtd">
<svg version="1.0" xmlns="http://www.w3.org/2000/svg"
 width="530.000000pt" height="530.000000pt" viewBox="0 0 530.000000 530.000000"
 preserveAspectRatio="xMidYMid meet">
<metadata>
Created by potrace 1.14, written by Peter Selinger 2001-2017
</metadata>
<g transform="translate(0.000000,530.000000) scale(0.100000,-0.100000)"
fill="#000000" stroke="none">
<path d="M4375 5015 c-57 -20 -128 -102 -165 -191 -27 -64 -70 -211 -84 -284
-11 -59 -27 -137 -31 -160 -3 -14 -8 -43 -11 -65 -11 -85 -9 -83 -54 -75 -22
4 -175 8 -341 9 -246 2 -300 0 -293 -11 6 -10 4 -10 -7 -3 -8 6 -43 10 -79 9
-168 -4 -460 -16 -505 -20 -61 -6 -70 -6 -275 -6 -207 1 -499 -6 -610 -14 -47
-3 -112 -8 -145 -9 -331 -16 -421 -21 -511 -30 l-51 -5 -23 133 c-12 72 -22
138 -23 145 0 6 -10 13 -21 13 -18 1 -18 2 -3 6 20 5 20 3 -20 128 -78 245
-184 367 -320 367 -198 0 -422 -342 -617 -939 -45 -138 -104 -358 -111 -415
-2 -15 -6 -35 -9 -45 -3 -10 -8 -42 -11 -72 -4 -30 -8 -63 -11 -74 -2 -11 -6
-52 -10 -91 -3 -39 -8 -73 -9 -76 -17 -30 -27 -647 -13 -830 9 -123 18 -209
23 -239 2 -13 7 -45 11 -70 8 -58 9 -60 29 -156 9 -44 18 -87 20 -95 29 -141
108 -356 183 -500 38 -72 142 -233 161 -250 3 -3 23 -24 43 -47 40 -45 132
-131 188 -176 96 -76 122 -95 210 -152 52 -35 109 -66 127 -70 18 -3 54 -23
80 -44 93 -73 244 -135 436 -177 37 -8 102 -25 145 -39 42 -14 86 -25 98 -25
11 0 40 -6 65 -14 59 -19 263 -49 321 -47 26 0 66 -6 90 -15 36 -13 106 -15
423 -16 232 0 390 4 406 10 15 6 60 11 100 11 65 0 171 17 329 50 25 5 62 17
82 25 21 9 48 16 61 16 30 0 109 25 172 55 28 13 93 36 145 49 52 14 134 46
182 70 48 24 97 47 110 51 30 9 235 146 302 201 87 73 178 168 247 259 86 112
142 215 264 480 56 122 133 368 165 528 51 253 65 414 65 747 0 364 -22 583
-89 905 -22 103 -46 205 -55 228 -6 15 -8 27 -6 27 10 0 -100 302 -144 395
-134 284 -346 561 -473 620 -60 28 -95 30 -153 10z m-1222 -809 c6 7 22 -52
30 -111 4 -27 3 -34 -3 -20 -5 11 -12 41 -15 68 -4 29 -11 47 -19 47 -8 0 -16
10 -19 23 -5 20 -5 20 7 5 7 -10 16 -15 19 -12z m165 -20 c4 -35 -14 -26 -20
9 -4 16 -1 24 6 22 6 -2 12 -16 14 -31z m156 18 c9 -8 17 -22 17 -30 1 -8 2
-17 3 -21 22 -90 35 -193 24 -193 -4 0 -8 15 -8 34 0 63 -32 179 -56 203 -15
15 -18 23 -9 23 7 0 21 -7 29 -16z m-850 -10 c3 -8 2 -12 -4 -9 -6 3 -10 10
-10 16 0 14 7 11 14 -7z m175 -33 c5 -24 6 -39 1 -35 -8 10 -25 92 -16 84 2
-3 9 -25 15 -49z m1073 3 c2 -19 1 -37 -2 -39 -3 -2 -7 12 -8 32 -2 20 -6 41
-9 46 -3 6 -1 7 4 4 6 -4 13 -23 15 -43z m-1408 10 c3 -8 2 -12 -4 -9 -6 3
-10 10 -10 16 0 14 7 11 14 -7z m343 -96 c-3 -7 -5 -2 -5 12 0 14 2 19 5 13 2
-7 2 -19 0 -25z m1070 10 c-3 -8 -6 -5 -6 6 -1 11 2 17 5 13 3 -3 4 -12 1 -19z
m-690 -70 c-3 -7 -5 -2 -5 12 0 14 2 19 5 13 2 -7 2 -19 0 -25z m690 -5 c-3
-10 -5 -4 -5 12 0 17 2 24 5 18 2 -7 2 -21 0 -30z m-690 -65 c-3 -8 -6 -5 -6
6 -1 11 2 17 5 13 3 -3 4 -12 1 -19z m339 -23 c0 -28 -8 -24 -13 5 -2 11 1 20
5 20 4 0 8 -11 8 -25z m-339 -97 c-3 -8 -6 -5 -6 6 -1 11 2 17 5 13 3 -3 4
-12 1 -19z m330 -20 c-3 -8 -6 -5 -6 6 -1 11 2 17 5 13 3 -3 4 -12 1 -19z
m518 -338 c186 -64 293 -210 278 -378 -23 -269 -301 -460 -576 -396 -235 55
-355 285 -275 524 7 19 12 37 13 40 0 3 16 30 35 60 71 112 130 158 215 168
22 2 42 6 44 8 13 12 212 -7 266 -26z m-2137 -34 c104 -22 192 -67 257 -133
72 -74 99 -140 98 -248 -1 -173 -97 -322 -258 -400 -133 -64 -259 -74 -390
-30 -216 72 -313 252 -265 489 22 105 109 239 186 287 77 47 240 63 372 35z
m523 -2093 c13 -16 12 -17 -3 -4 -10 7 -18 15 -18 17 0 8 8 3 21 -13z m-1420
-671 c-7 -2 -18 1 -23 6 -8 8 -4 9 13 5 13 -4 18 -8 10 -11z m46 -8 c-3 -3
-12 -4 -19 -1 -8 3 -5 6 6 6 11 1 17 -2 13 -5z"/>
<path d="M3756 3305 c-21 -7 -51 -25 -66 -40 -40 -38 -93 -149 -92 -189 8
-200 327 -319 475 -178 61 58 85 139 65 222 -15 57 -88 132 -163 165 -68 30
-166 39 -219 20z m82 -32 c-10 -2 -28 -2 -40 0 -13 2 -5 4 17 4 22 1 32 -1 23
-4z m263 -150 c6 -19 9 -36 6 -39 -2 -3 -8 7 -11 22 -4 15 -17 42 -29 58 l-21
31 22 -19 c12 -10 26 -34 33 -53z m-280 -35 c-3 -47 -4 -50 -17 -33 -8 10 -14
24 -14 30 0 9 27 55 33 55 1 0 0 -23 -2 -52z m-183 -48 c1 -23 0 -23 -8 -5 -5
11 -8 36 -8 55 l0 35 8 -30 c4 -16 8 -41 8 -55z m438 16 c-4 -74 -70 -147
-133 -146 -17 1 -17 2 2 16 62 47 94 86 106 133 15 60 28 58 25 -3z m-36 -140
c0 -2 -8 -10 -17 -17 -16 -13 -17 -12 -4 4 13 16 21 21 21 13z m-126 -48 c-5
-7 -85 0 -94 9 -2 2 18 3 47 1 28 -2 49 -6 47 -10z m49 5 c-7 -2 -19 -2 -25 0
-7 3 -2 5 12 5 14 0 19 -2 13 -5z"/>
<path d="M1705 3273 c-73 -15 -175 -158 -175 -246 0 -206 354 -332 507 -179
76 76 96 186 47 265 -37 57 -78 93 -151 129 -51 25 -77 31 -136 33 -39 1 -81
0 -92 -2z m81 -41 c-3 -5 -20 -6 -38 -3 l-33 5 35 6 c39 7 45 5 36 -8z m140
-68 c18 -14 18 -14 -6 -3 -31 14 -36 19 -24 19 6 0 19 -7 30 -16z m133 -79
c13 -26 21 -49 18 -52 -3 -3 -15 18 -28 46 -12 28 -25 51 -30 51 -5 0 -9 5 -9
11 0 21 25 -8 49 -56z m-491 -42 c1 -21 6 -53 11 -70 11 -38 7 -43 -9 -12 -16
29 -22 69 -15 96 8 33 11 29 13 -14z m200 -8 c0 -25 -4 -45 -8 -45 -14 0 -27
46 -19 68 14 37 29 25 27 -23z m99 3 c-3 -7 -5 -2 -5 12 0 14 2 19 5 13 2 -7
2 -19 0 -25z m172 -32 c1 -47 -43 -111 -94 -136 -53 -26 -78 -18 -38 13 62 47
90 84 104 136 14 55 27 49 28 -13z m32 -33 c-12 -20 -14 -14 -5 12 4 9 9 14
11 11 3 -2 0 -13 -6 -23z m-37 -78 c-46 -61 -86 -78 -188 -83 -50 -2 -87 -1
-83 4 4 4 35 7 68 6 89 -4 134 12 182 64 51 53 57 56 21 9z"/>
</g>
</svg>
